<svg width="40" height="40" viewBox="0 0 40 40" fill="none" xmlns="http://www.w3.org/2000/svg">
<path d="M7.39732 39.8116C9.4932 35.0079 14.1782 31.6798 19.6645 31.6798C25.2125 31.6798 29.9591 35.102 32.0242 40H39.2982C39.2982 40 38.7743 36.4522 35.4146 32.2763C33.2879 29.6076 31.7776 28.5087 29.2194 27.0644C21.2364 22.6374 13.3768 25.6515 13.3768 25.6515L20.0344 8.00627L23.1166 18.4615C23.1166 18.4615 25.9831 18.3988 28.5105 19.2465C31.0379 20.0942 32.3632 21.5385 32.3632 21.5385L23.8872 0H20.0344H16.1816L0 40H7.30488C7.30488 40 7.33572 39.9372 7.39732 39.8116Z" fill="#0D0E0C"/>
<ellipse cx="35.7821" cy="25.2344" rx="3.98863" ry="4" fill="#93F224"/>
</svg>
