<?xml version="1.0" encoding="UTF-8"?>
<!-- The Best Svg Icon site in the world: iconSvg.co, Visit us! https://iconsvg.co -->
<svg fill="#000000" width="800px" height="800px" version="1.1" viewBox="144 144 512 512" xmlns="http://www.w3.org/2000/svg">
 <path d="m432.01 615.54c53.738 0 105.22-19.891 144.95-55.996l11.598-10.496-15.586 1.418c-6.6641 0.62891-12.859 0.89062-18.895 0.89062-113.09 0-205.14-92.051-205.14-205.14 0-57.676 24.508-113.04 67.227-151.88l11.598-10.547-15.586 1.418c-111.62 10.18-195.8 102.49-195.8 214.7 0 118.87 96.719 215.64 215.64 215.64zm141.43-59.879c-0.050781 0.050781-0.10547 0.10547-0.15625 0.10547l-6.1406 0.36719c2.0977-0.16016 4.1445-0.31641 6.2969-0.47266zm-141.22 54.629c47.129-0.050781 92.996-16.008 129.89-45.027-36.945 29.074-82.5 44.977-129.89 45.027zm-19.785-419.84h0.21094c-1.8906 1.7305-3.7773 3.4648-5.5625 5.2461zm-14.645 7.1914c-37.84 39.887-59.355 93.57-59.355 148.57 0 118.92 96.723 215.64 215.64 215.64 1.3125 0 2.625 0 3.9375-0.050781-35.895 27.973-80.348 43.242-126 43.242-113.09 0-205.14-91.996-205.14-205.14 0-102.02 71.426-185.89 170.93-202.26z"/>
</svg>